<svg xmlns="http://www.w3.org/2000/svg" viewBox="0 0 1070.19 147.24"><defs><style>.cls-1{fill:#fff}</style></defs><g id="Layer_2" data-name="Layer 2"><g id="Layer_1-2" data-name="Layer 1"><path class="cls-1" d="M872.52 66.04a15.703 15.703 0 01.02 15.23 14.08 14.08 0 01-5.38 5.34 15.25 15.25 0 01-7.61 1.94h-8.3v-29.8h8.2a15.382 15.382 0 017.66 1.94 14.183 14.183 0 015.41 5.35z"/><path class="cls-1" d="M925.51 65.71a15.196 15.196 0 00-5.53-5.64 14.712 14.712 0 00-15.05.02 15.4 15.4 0 00-5.54 5.65 15.815 15.815 0 005.54 21.44 14.75 14.75 0 0015.07 0 16.021 16.021 0 005.51-21.47zm0 0a15.196 15.196 0 00-5.53-5.64 14.712 14.712 0 00-15.05.02 15.4 15.4 0 00-5.54 5.65 15.815 15.815 0 005.54 21.44 14.75 14.75 0 0015.07 0 16.021 16.021 0 005.51-21.47zM1052.68 0H809.7a17.51 17.51 0 00-17.51 17.51v112.23a17.502 17.502 0 0017.51 17.5h242.98a17.502 17.502 0 0017.51-17.5V17.51A17.51 17.51 0 001052.68 0zM880.43 85.59a23.39 23.39 0 01-8.86 8.46 25.066 25.066 0 01-12.32 3.09h-17.06V50.16h16.96a25.258 25.258 0 0112.37 3.09 23.476 23.476 0 018.9 8.48 23.428 23.428 0 01.01 23.86zm53.11.28a24.36 24.36 0 01-42.17 0 24.92 24.92 0 010-24.54 23.735 23.735 0 018.79-8.78 24.997 24.997 0 0124.58 0 23.688 23.688 0 018.8 8.78 24.92 24.92 0 010 24.54zm18.92-4.34a15.477 15.477 0 005.54 5.65 14.462 14.462 0 007.52 2.07 15.546 15.546 0 005.62-.99 19.864 19.864 0 005.25-3.09l5.02 6.92a24.38 24.38 0 01-7.29 4.32 24.831 24.831 0 01-20.89-1.71 24.194 24.194 0 01-12.02-21.1 24.066 24.066 0 0124.31-24.28 24.29 24.29 0 0115.89 5.78l-5.12 6.86a18.267 18.267 0 00-5-2.86 16.005 16.005 0 00-5.77-1.09 14.47 14.47 0 00-7.52 2.08 15.4 15.4 0 00-5.54 5.65 16.228 16.228 0 000 15.79zm65.54 9.58a14.126 14.126 0 01-6.09 5.01 21.391 21.391 0 01-8.88 1.76 25.838 25.838 0 01-10.48-2.16 24.178 24.178 0 01-8.55-6.27l5.82-5.88a18.73 18.73 0 006.06 4.38 17.035 17.035 0 006.99 1.5 10.192 10.192 0 005.97-1.54 4.897 4.897 0 002.19-4.24 4.358 4.358 0 00-1.06-3.01 8.74 8.74 0 00-3.21-2.13 52.798 52.798 0 00-6-1.99 38.516 38.516 0 01-6.91-2.57 14.56 14.56 0 01-5.13-4.28 11.278 11.278 0 01-2.11-7.03 12.385 12.385 0 017.31-11.5 19.862 19.862 0 018.78-1.77 24.671 24.671 0 019.11 1.65 23.78 23.78 0 017.48 4.7l-5.19 6.22a16.948 16.948 0 00-5.05-3.09 15.523 15.523 0 00-5.98-1.22 10.43 10.43 0 00-3.83.65 5.909 5.909 0 00-2.64 1.86 4.343 4.343 0 00-.96 2.8 3.543 3.543 0 001.04 2.61 8.107 8.107 0 002.74 1.73c1.14.45 2.8 1.02 4.98 1.68l.74.24a48.644 48.644 0 018.08 3.29 14.637 14.637 0 015.08 4.38 11.093 11.093 0 011.89 6.58 13.39 13.39 0 01-2.19 7.64zm-98.02-31.04a14.712 14.712 0 00-15.05.02 15.4 15.4 0 00-5.54 5.65 15.815 15.815 0 005.54 21.44 14.75 14.75 0 0015.07 0 16.021 16.021 0 005.51-21.47 15.196 15.196 0 00-5.53-5.64zm5.53 5.64a15.196 15.196 0 00-5.53-5.64 14.712 14.712 0 00-15.05.02 15.4 15.4 0 00-5.54 5.65 15.815 15.815 0 005.54 21.44 14.75 14.75 0 0015.07 0 16.021 16.021 0 005.51-21.47zm0 0a15.196 15.196 0 00-5.53-5.64 14.712 14.712 0 00-15.05.02 15.4 15.4 0 00-5.54 5.65 15.815 15.815 0 005.54 21.44 14.75 14.75 0 0015.07 0 16.021 16.021 0 005.51-21.47zM0 23.75h24.135l23.263 57.375L70.08 23.75h23.844v82.587H73.86V56.784l-18.61 49.552H38.966l-18.32-49.842v49.842H0zM169.238 106.335h-20.063v-8.983a24.267 24.267 0 01-19.775 9.562c-15.12 0-25.59-10.432-25.59-28.108v-38.25h20.065v35.931c0 8.984 4.944 13.91 12.504 13.91 7.852 0 12.796-4.926 12.796-13.91V40.555h20.063zM179.125 19.403h20.066v86.933h-20.066zM212.274 57.097h-8.141v-16.54h8.141V23.748h20.066v16.807h13.084v16.518h-12.795v26.66c0 3.766 1.746 5.505 6.107 5.505h7.271v17.097h-10.179c-13.667 0-23.262-5.796-23.262-22.893V57.097zM250.657 23.17c0-6.086 4.946-11.012 11.925-11.012 6.977 0 11.922 4.926 11.922 11.012 0 6.085-4.945 10.722-11.922 10.722-7.271 0-11.925-4.927-11.925-10.722zm1.746 17.386h20.066v65.78h-20.066zM312.887 107.206c-17.736 0-31.985-8.693-32.568-25.79h21.52c.58 6.375 4.652 9.273 10.175 9.273 5.818 0 9.598-2.898 9.598-7.824 0-15.359-41.582-6.955-41.293-36.512 0-15.648 12.794-24.631 30.533-24.631 18.029 0 30.534 8.983 31.115 24.92H320.16c-.292-5.216-4.073-8.403-9.599-8.693-4.942 0-8.433 2.318-8.433 7.534 0 14.2 41.002 7.824 41.002 35.643 0 14.489-11.049 26.08-30.242 26.08zM375.99 39.687c9.886 0 16.574 4.347 20.354 10.143v-9.273h20.063v65.78h-20.063v-9.273c-3.78 5.795-10.468 10.142-20.355 10.142-15.993 0-29.08-13.04-29.08-34.194-.289-20.284 12.795-33.325 29.08-33.325zm5.814 17.387c-7.56 0-14.248 5.506-14.248 15.938s6.688 16.228 14.248 16.228 14.248-5.796 14.248-16.228c0-10.142-6.687-15.938-14.248-15.938zM428.329 57.097h-7.269v-16.54h7.269v-1.74c0-17.096 10.47-25.79 30.825-24.92v17.386c-7.852-.58-10.467 1.739-10.467 8.694v.58h10.756v16.517h-10.756v49.262H428.62V57.097zM493.466 107.205c-19.19 0-33.439-13.04-33.439-33.904 0-20.864 13.668-33.904 33.439-33.904 19.193 0 32.86 12.75 32.86 32.745a40.502 40.502 0 01-.292 5.795H480.09c.581 8.694 6.107 12.461 12.503 12.461a11.01 11.01 0 0010.47-6.375h21.517c-2.615 13.33-14.248 23.182-31.114 23.182zm-13.084-39.99h25.589c0-7.244-5.526-11.3-12.214-11.3-6.98 0-12.213 3.767-13.375 11.3zM573.143 39.687c15.993 0 29.369 13.04 29.369 33.905 0 20.574-12.795 34.193-29.37 34.193-9.594 0-16.574-4.636-20.354-10.142v40.46h-20.066V40.556h20.066v9.273c3.78-5.796 10.76-10.143 20.355-10.143zm-6.107 17.387c-7.56 0-14.248 5.796-14.248 16.228s6.687 16.227 14.248 16.227 14.54-5.795 14.54-16.227-6.98-16.228-14.54-16.228zM635.372 39.687c9.887 0 16.575 4.347 20.355 10.143v-9.273h20.063v65.78h-20.063v-9.273c-3.78 5.795-10.468 10.142-20.355 10.142-15.994 0-29.08-13.04-29.08-34.194.292-20.284 13.086-33.325 29.08-33.325zm6.396 17.387c-7.56 0-14.248 5.506-14.248 15.938s6.687 16.228 14.248 16.228c7.56 0 14.248-5.796 14.248-16.228 0-10.142-6.688-15.938-14.248-15.938zM734.24 40.555h21.808l-41.49 96.552h-21.514l15.025-32.8-27.203-63.755h22.393l15.278 41.441z"/></g></g></svg>